<svg width="473" height="473" viewBox="0 0 473 473" fill="none" xmlns="http://www.w3.org/2000/svg">
<rect width="473" height="473" fill="white"/>
<g clip-path="url(#clip0_915_183)">
<g style="mix-blend-mode:multiply">
<path d="M153.517 267.433C144.167 262.032 129.069 262.032 119.775 267.433C110.489 272.834 110.537 281.578 119.887 286.973C129.229 292.367 144.334 292.374 153.628 286.973C162.922 281.571 162.859 272.82 153.517 267.433Z" fill="url(#paint0_linear_915_183)"/>
</g>
<path d="M153.517 266.55C144.167 261.149 129.069 261.149 119.775 266.55C110.489 271.951 110.537 280.696 119.887 286.09C129.229 291.484 144.334 291.491 153.628 286.09C162.915 280.689 162.859 271.937 153.517 266.55Z" fill="url(#paint1_linear_915_183)"/>
<path d="M153.517 262.915C144.167 257.513 129.069 257.513 119.775 262.915C110.489 268.316 110.537 277.06 119.887 282.454C129.229 287.849 144.334 287.856 153.628 282.454C162.915 277.053 162.859 268.302 153.517 262.915Z" fill="url(#paint2_linear_915_183)"/>
<path d="M136.778 285.742C130.536 285.742 124.669 284.338 120.269 281.801C115.98 279.319 113.609 276.073 113.603 272.653C113.603 269.261 115.924 266.035 120.158 263.575C124.537 261.031 130.383 259.626 136.618 259.626C142.853 259.626 148.72 261.031 153.127 263.575C157.416 266.049 159.78 269.303 159.787 272.723C159.787 276.115 157.465 279.34 153.238 281.794C148.859 284.338 143.013 285.735 136.778 285.735V285.742Z" fill="url(#paint3_linear_915_183)"/>
<path d="M126.108 265.452L140.045 268.218L137.487 272.104L130.849 273.508L126.108 265.452Z" fill="url(#paint4_linear_915_183)"/>
<path d="M131.488 274.614L139.079 272.987L141.908 268.594L147.288 277.755L131.488 274.614Z" fill="url(#paint5_linear_915_183)"/>
<path opacity="0.5" d="M152.391 337.856L122.048 320.617L97.2395 306.291C93.5693 304.17 93.5693 298.874 97.2395 296.76L101.403 294.355L118.163 284.679" stroke="url(#paint6_linear_915_183)" stroke-width="1.4" stroke-linecap="round" stroke-linejoin="round"/>
<path style="mix-blend-mode:multiply" d="M132.1 337.495L203.072 296.517L221.055 306.895L150.083 347.873L132.1 337.495Z" fill="url(#paint7_linear_915_183)"/>
<path d="M150.083 321.59L132.1 311.205L150.083 300.827L168.059 311.205L150.083 321.59Z" fill="url(#paint8_linear_915_183)"/>
<path d="M150.083 321.59V347.873L168.059 337.495V311.205L150.083 321.59Z" fill="url(#paint9_linear_915_183)"/>
<path d="M150.083 321.59L132.1 311.205V337.495L150.083 347.873V321.59Z" fill="url(#paint10_linear_915_183)"/>
<path opacity="0.09" d="M150.083 347.873L132.1 337.495L150.083 327.109L168.059 337.495L150.083 347.873Z" fill="url(#paint11_linear_915_183)"/>
<g opacity="0.4">
<path style="mix-blend-mode:overlay" d="M168.059 320.603L150.069 338.593V344.474L168.059 326.484V320.603Z" fill="url(#paint12_linear_915_183)"/>
</g>
<path opacity="0.5" d="M261.664 318.726L334.075 276.914L360.378 261.726C364.049 259.606 364.049 254.309 360.378 252.196L356.215 249.791L310.67 223.494" stroke="url(#paint13_linear_915_183)" stroke-width="1.4" stroke-linecap="round" stroke-linejoin="round"/>
<path style="mix-blend-mode:multiply" d="M180.015 302.579L248.603 262.978L321.757 305.832L254.372 344.738C252.155 346.017 249.423 346.01 247.212 344.717L180.001 305.345C178.944 304.727 178.944 303.197 180.008 302.579H180.015Z" fill="url(#paint14_linear_915_183)"/>
<path d="M254.949 156.7L189.754 119.059C187.189 117.578 184.679 117.391 182.691 118.538L176.581 122.208L179.514 155.484L179.139 288.94C179.125 294.265 182.747 300.535 187.383 303.218L243.188 335.437L253.538 345.051L259.141 341.631C259.308 341.547 259.481 341.471 259.641 341.38C261.622 340.24 262.714 337.995 262.721 335.069L263.186 170.978C263.2 165.646 259.579 159.376 254.942 156.7H254.949Z" fill="url(#paint15_linear_915_183)"/>
<path d="M248.839 160.37L183.643 122.729C181.078 121.249 178.569 121.061 176.581 122.208C174.6 123.348 173.502 125.593 173.495 128.527L173.029 292.617C173.015 297.942 176.637 304.212 181.273 306.895L246.469 344.536C247.921 345.377 249.36 345.801 250.695 345.801C251.717 345.801 252.676 345.551 253.538 345.057C255.519 343.917 256.61 341.672 256.617 338.746L257.083 174.655C257.097 169.323 253.475 163.053 248.839 160.377V160.37Z" fill="url(#paint16_linear_915_183)"/>
<path d="M250.354 172.806L249.896 334.526V336.897C249.889 339.038 248.373 339.9 246.496 338.822L181.308 301.181C179.438 300.111 177.93 297.497 177.943 295.349L178.409 131.265C178.409 129.124 179.925 128.262 181.787 129.34L184.637 130.987L199.409 139.51C200.104 139.92 200.73 140.754 200.973 141.651L201.3 142.798C201.738 144.306 202.787 145.759 203.969 146.433L224.788 158.452C225.976 159.14 227.04 158.917 227.478 157.903L227.812 157.131C228.062 156.547 228.687 156.415 229.376 156.811L246.997 166.981C248.86 168.058 250.361 170.665 250.354 172.806Z" fill="url(#paint17_linear_915_183)"/>
<path d="M250.354 172.806L249.895 334.526L187.543 298.533C185.673 297.455 184.164 294.842 184.178 292.701L184.637 130.987L199.408 139.51C200.104 139.92 200.729 140.754 200.972 141.65L201.299 142.797C201.737 144.306 202.787 145.759 203.968 146.433L224.787 158.452C225.976 159.14 227.04 158.917 227.478 157.902L227.811 157.131C228.061 156.547 228.687 156.415 229.375 156.811L246.997 166.981C248.86 168.058 250.361 170.665 250.354 172.806Z" fill="url(#paint18_linear_915_183)"/>
<path d="M217.169 147.086L207.82 141.685C207.215 141.338 206.728 141.623 206.721 142.318C206.714 143.013 207.208 143.861 207.813 144.209L217.162 149.61C217.767 149.957 218.26 149.679 218.267 148.984C218.274 148.289 217.781 147.434 217.169 147.086Z" fill="url(#paint19_linear_915_183)"/>
<path d="M222.285 150.041L221.486 149.575C220.881 149.227 220.394 149.512 220.387 150.208C220.38 150.903 220.874 151.751 221.479 152.098L222.278 152.564C222.883 152.912 223.369 152.627 223.376 151.931C223.383 151.236 222.89 150.388 222.285 150.041Z" fill="url(#paint20_linear_915_183)"/>
<g style="mix-blend-mode:multiply">
<path d="M256.972 219.72L256.889 247.691L206.464 218.58C204.74 217.579 203.343 215.16 203.343 213.172L203.406 192.394C203.413 190.406 204.817 189.607 206.548 190.601L256.979 219.72H256.972Z" fill="url(#paint21_linear_915_183)"/>
</g>
<g style="mix-blend-mode:multiply">
<path d="M256.847 257.597L256.77 285.583L206.464 256.541C204.74 255.54 203.343 253.121 203.343 251.132L203.406 230.355C203.413 228.367 204.817 227.568 206.548 228.562L256.854 257.604L256.847 257.597Z" fill="url(#paint22_linear_915_183)"/>
</g>
<g style="mix-blend-mode:multiply">
<path d="M256.715 295.481L256.638 323.453L206.464 294.487C204.74 293.486 203.343 291.067 203.343 289.086L203.406 268.302C203.413 266.314 204.817 265.515 206.548 266.516L256.722 295.481H256.715Z" fill="url(#paint23_linear_915_183)"/>
</g>
<path style="mix-blend-mode:multiply" d="M305.144 354.935L275.866 337.856L225.852 366.731C220.179 366.905 214.597 368.233 210.281 370.742C200.994 376.143 201.043 384.888 210.392 390.282C219.734 395.676 234.839 395.683 244.133 390.282C244.752 389.921 245.329 389.545 245.864 389.156L305.144 354.928V354.935Z" fill="url(#paint24_linear_915_183)"/>
<path d="M244.015 370.742C234.665 365.341 219.567 365.341 210.273 370.742C200.987 376.143 201.035 384.888 210.385 390.282C219.727 395.676 234.832 395.683 244.126 390.282C253.413 384.881 253.357 376.129 244.015 370.742Z" fill="url(#paint25_linear_915_183)"/>
<path d="M244.015 367.114C234.665 361.713 219.567 361.713 210.273 367.114C200.987 372.515 201.035 381.26 210.385 386.654C219.727 392.048 234.832 392.055 244.126 386.654C253.413 381.253 253.357 372.501 244.015 367.114Z" fill="url(#paint26_linear_915_183)"/>
<path d="M244.015 365.953C234.665 360.552 219.567 360.552 210.273 365.953C200.987 371.354 201.035 380.098 210.385 385.493C219.727 390.887 234.832 390.894 244.126 385.493C253.413 380.091 253.357 371.34 244.015 365.953Z" fill="url(#paint27_linear_915_183)"/>
<path d="M244.015 362.317C234.665 356.916 219.567 356.916 210.273 362.317C200.987 367.719 201.035 376.463 210.385 381.857C219.734 387.251 234.832 387.258 244.126 381.857C253.413 376.456 253.357 367.705 244.015 362.317Z" fill="url(#paint28_linear_915_183)"/>
<path d="M244.015 360.732C234.665 355.331 219.567 355.331 210.274 360.732C200.98 366.133 201.035 374.878 210.385 380.272C219.734 385.666 234.832 385.673 244.126 380.272C253.413 374.871 253.357 366.119 244.015 360.732Z" fill="url(#paint29_linear_915_183)"/>
<path d="M244.015 357.097C234.666 351.696 219.568 351.696 210.274 357.097C200.987 362.498 201.036 371.242 210.385 376.637C219.735 382.031 234.833 382.038 244.126 376.637C253.413 371.236 253.358 362.484 244.015 357.097Z" fill="url(#paint30_linear_915_183)"/>
<path d="M244.015 355.109C234.665 349.708 219.567 349.708 210.274 355.109C200.98 360.51 201.035 369.255 210.385 374.649C219.727 380.043 234.832 380.05 244.126 374.649C253.413 369.248 253.357 360.496 244.015 355.109Z" fill="url(#paint31_linear_915_183)"/>
<path d="M244.015 351.481C234.666 346.079 219.568 346.079 210.274 351.481C200.987 356.882 201.036 365.626 210.385 371.02C219.728 376.415 234.833 376.422 244.126 371.02C253.413 365.619 253.358 356.868 244.015 351.481Z" fill="url(#paint32_linear_915_183)"/>
<path d="M227.283 374.301C221.041 374.301 215.174 372.897 210.774 370.36C206.485 367.878 204.115 364.632 204.108 361.212C204.108 357.82 206.43 354.595 210.663 352.134C215.042 349.59 220.888 348.186 227.123 348.186C233.359 348.186 239.226 349.59 243.633 352.134C247.922 354.608 250.285 357.862 250.292 361.282C250.292 364.674 247.97 367.899 243.744 370.353C239.365 372.897 233.519 374.294 227.283 374.294V374.301Z" fill="url(#paint33_linear_915_183)"/>
<path d="M234.881 355.888C233.602 355.151 231.537 355.151 230.272 355.888C229.473 356.353 229.188 356.986 229.403 357.591C229.577 358.098 229.403 358.633 228.764 359.002L228.347 359.245C227.721 359.606 226.804 359.752 225.935 359.62L225.434 359.544C224.968 359.474 224.538 359.335 224.204 359.141C223.933 358.988 223.731 358.793 223.627 358.578C223.488 358.279 223.217 358.001 222.814 357.771C222.682 357.695 222.536 357.625 222.376 357.556C221.305 357.118 219.838 357.09 218.747 357.514C216.961 358.195 216.787 359.6 218.219 360.427C218.295 360.475 218.379 360.517 218.469 360.559C219.428 361.004 220.777 361.073 221.882 360.795C222.216 360.712 222.494 360.601 222.723 360.475C223.377 360.135 224.259 359.996 225.101 360.121L225.671 360.211C226.102 360.274 226.484 360.406 226.79 360.587C227.096 360.767 227.325 360.983 227.436 361.233L227.596 361.56C227.825 362.046 227.575 362.561 226.984 362.936C226.776 363.075 226.588 363.235 226.449 363.43C225.956 364.076 226.088 364.855 226.866 365.404C226.936 365.452 227.012 365.501 227.096 365.55C228.528 366.377 230.96 366.273 232.128 365.237C232.858 364.604 232.796 363.749 232.045 363.138C231.927 363.047 231.808 362.957 231.669 362.881C231.266 362.644 230.787 362.491 230.279 362.415C229.904 362.352 229.577 362.234 229.306 362.081C228.972 361.886 228.729 361.636 228.604 361.372L228.465 361.08C228.229 360.58 228.479 360.044 229.104 359.683L229.424 359.502C230.057 359.134 230.967 358.932 231.85 359.057C233.06 359.224 234.401 358.981 235.228 358.327C236.021 357.695 236.035 356.798 235.27 356.159C235.152 356.061 235.027 355.971 234.888 355.895" fill="url(#paint34_linear_915_183)"/>
<path d="M160.573 212.407V243.034C160.573 244.348 159.148 245.168 158.008 244.508L121.291 223.23C120.2 222.604 119.546 221.444 119.546 220.199V189.447C119.546 188.217 120.881 187.452 121.938 188.071L158.828 209.369C159.919 209.995 160.579 211.156 160.579 212.4L160.573 212.407Z" fill="url(#paint35_linear_915_183)"/>
<path d="M159.231 212.886V243.514C159.231 244.827 157.806 245.648 156.666 244.987L119.949 223.71C118.858 223.084 118.205 221.923 118.205 220.679V189.927C118.205 188.696 119.539 187.932 120.596 188.55L157.486 209.849C158.577 210.474 159.238 211.635 159.238 212.879L159.231 212.886Z" fill="url(#paint36_linear_915_183)"/>
<path d="M126.504 201.82L123.467 207.159L126.504 210.482L129.487 210.628L126.504 201.82Z" fill="url(#paint37_linear_915_183)"/>
<path d="M129.897 211.816L126.477 211.65L123.063 207.875L126.456 217.871L129.897 211.816Z" fill="url(#paint38_linear_915_183)"/>
<g style="mix-blend-mode:multiply" opacity="0.3">
<path d="M152.03 218.712L134.353 208.5" stroke="#8400FF" stroke-width="1.4" stroke-linecap="round" stroke-linejoin="round"/>
</g>
<g style="mix-blend-mode:multiply" opacity="0.3">
<path d="M152.03 224.627L134.353 214.43" stroke="#8400FF" stroke-width="1.4" stroke-linecap="round" stroke-linejoin="round"/>
</g>
<g style="mix-blend-mode:multiply" opacity="0.3">
<path d="M145.12 226.574L134.353 220.345" stroke="#8400FF" stroke-width="1.4" stroke-linecap="round" stroke-linejoin="round"/>
</g>
<path d="M160.573 171.103V201.73C160.573 203.044 159.148 203.864 158.008 203.204L121.291 181.926C120.2 181.3 119.546 180.14 119.546 178.895V148.143C119.546 146.913 120.881 146.148 121.938 146.767L158.828 168.065C159.919 168.691 160.579 169.852 160.579 171.096L160.573 171.103Z" fill="url(#paint39_linear_915_183)"/>
<path d="M159.231 171.583V202.21C159.231 203.524 157.806 204.344 156.666 203.684L119.949 182.406C118.858 181.78 118.205 180.619 118.205 179.375V148.623C118.205 147.392 119.539 146.628 120.596 147.246L157.486 168.545C158.577 169.171 159.238 170.332 159.238 171.576L159.231 171.583Z" fill="url(#paint40_linear_915_183)"/>
<path d="M148.303 170.596V190.713L125.211 177.373C125.211 177.373 129.632 171.402 131.836 171.541C134.22 171.701 137.049 175.629 139.295 176.421C142.513 177.554 146.802 172.535 148.31 170.589L148.303 170.596Z" fill="url(#paint41_linear_915_183)"/>
<path opacity="0.5" d="M124.634 159.912V177.7L152.029 193.514" stroke="#905BF0" stroke-width="1.4" stroke-linecap="round" stroke-linejoin="round"/>
<path d="M193.146 145.55L202.154 150.75C203.92 151.765 205.004 153.648 205.004 155.685V166.091C205.004 167.905 203.037 169.045 201.466 168.135L192.457 162.935C190.692 161.92 189.607 160.037 189.607 158V147.594C189.607 145.78 191.575 144.64 193.146 145.55Z" fill="url(#paint42_linear_915_183)"/>
<path d="M193.146 209.453L202.154 214.652C203.92 215.667 205.004 217.551 205.004 219.588V229.994C205.004 231.808 203.037 232.948 201.466 232.037L192.457 226.838C190.692 225.823 189.607 223.939 189.607 221.902V211.496C189.607 209.682 191.575 208.542 193.146 209.453Z" fill="url(#paint43_linear_915_183)"/>
<path d="M213.109 156.679L222.118 161.879C223.884 162.894 224.968 164.777 224.968 166.814V177.22C224.968 179.034 223.001 180.174 221.43 179.264L212.421 174.064C210.656 173.049 209.571 171.166 209.571 169.129V158.723C209.571 156.909 211.538 155.769 213.109 156.679Z" fill="url(#paint44_linear_915_183)"/>
<path d="M274.009 220.547L200.5 178.11C198.769 177.109 197.365 177.915 197.358 179.896L197.302 200.681C197.302 202.669 198.692 205.088 200.423 206.082L273.933 248.519C275.663 249.52 277.068 248.714 277.075 246.733L277.13 225.948C277.13 223.96 275.74 221.541 274.009 220.547Z" fill="url(#paint45_linear_915_183)"/>
<path d="M272.876 221.194L199.367 178.756C197.636 177.756 196.232 178.562 196.225 180.543L196.169 201.327C196.169 203.315 197.56 205.734 199.291 206.728L272.8 249.165C274.531 250.166 275.935 249.36 275.942 247.379L275.997 226.595C275.997 224.607 274.607 222.188 272.876 221.194Z" fill="url(#paint46_linear_915_183)"/>
<path d="M208.126 193.479C207.25 192.972 206.534 193.375 206.527 194.383C206.527 195.015 206.812 195.745 207.236 196.308C207.604 196.802 207.854 197.379 207.848 197.886V198.22C207.848 198.727 207.611 199.047 207.229 199.082L207.006 199.103C206.805 199.116 206.575 199.061 206.346 198.929C206.158 198.824 205.971 198.665 205.804 198.463C205.581 198.185 205.317 197.949 205.039 197.789C204.949 197.74 204.858 197.691 204.768 197.657C204.136 197.413 203.614 197.684 203.482 198.331C203.267 199.388 204.038 200.868 205.032 201.445C205.088 201.48 205.143 201.508 205.199 201.528C205.79 201.8 206.297 201.612 206.52 201.104C206.582 200.945 206.617 200.785 206.624 200.611C206.645 200.131 206.867 199.805 207.236 199.77L207.486 199.749C207.674 199.735 207.889 199.791 208.098 199.916C208.306 200.041 208.522 200.222 208.709 200.458L208.953 200.764C209.328 201.223 209.544 201.8 209.564 202.307C209.564 202.488 209.606 202.689 209.662 202.919C209.877 203.683 210.392 204.462 210.976 204.865C211.031 204.907 211.087 204.942 211.142 204.969C212.136 205.539 212.908 204.955 212.706 203.656C212.574 202.863 212.06 201.987 211.427 201.501C211.337 201.431 211.247 201.369 211.156 201.32C210.878 201.16 210.614 201.098 210.385 201.104C210.218 201.118 210.03 201.056 209.849 200.952C209.62 200.819 209.391 200.611 209.189 200.368L208.967 200.09C208.591 199.631 208.355 199.026 208.355 198.519V198.275C208.355 197.761 208.564 197.379 208.939 197.33C209.46 197.267 209.787 196.753 209.683 195.919C209.585 195.113 209.057 194.174 208.411 193.674C208.313 193.597 208.216 193.528 208.119 193.479" fill="url(#paint47_linear_915_183)"/>
<path d="M248.297 216.481L224.982 203.023C223.926 202.412 223.064 202.905 223.057 204.128C223.05 205.352 223.912 206.833 224.968 207.444L248.283 220.902C249.346 221.514 250.208 221.02 250.215 219.81C250.222 218.601 249.36 217.099 248.297 216.488" fill="#9254EC"/>
<path d="M266.863 229.319L260.288 225.524L263.555 234.199L266.863 229.319Z" fill="url(#paint48_linear_915_183)"/>
<path opacity="0.5" d="M245.127 223.488L223.606 211.066" stroke="#905BF0" stroke-width="1.4" stroke-linecap="round" stroke-linejoin="round"/>
<path d="M274.009 258.501L200.5 216.064C198.769 215.063 197.365 215.869 197.358 217.85L197.302 238.634C197.302 240.622 198.692 243.041 200.423 244.035L273.933 286.473C275.663 287.474 277.068 286.667 277.075 284.686L277.13 263.902C277.13 261.914 275.74 259.495 274.009 258.501Z" fill="url(#paint49_linear_915_183)"/>
<path d="M272.876 259.147L199.367 216.71C197.636 215.709 196.232 216.515 196.225 218.497L196.169 239.281C196.169 241.269 197.56 243.688 199.291 244.682L272.8 287.119C274.531 288.12 275.935 287.314 275.942 285.333L275.997 264.548C275.997 262.56 274.607 260.141 272.876 259.147Z" fill="url(#paint50_linear_915_183)"/>
<path d="M207.166 238.002V235.951L208.535 236.737C208.883 236.938 209.14 237.181 209.328 237.473C209.509 237.765 209.606 238.071 209.606 238.398C209.606 239.065 209.245 239.197 208.542 238.787L207.173 237.995M207.18 234.415V232.455L208.424 233.171C209.099 233.56 209.446 234.088 209.446 234.735C209.446 235.381 209.112 235.527 208.445 235.145L207.187 234.415M209.536 230.828L208.598 230.286V231.502L207.555 230.905V229.688L206.624 229.153V230.369L205.275 229.591L205.248 238.704L206.596 239.482V240.518L207.528 241.053V240.018L208.57 240.615V241.651L209.509 242.193V241.116C210.086 241.366 210.537 241.422 210.885 241.29C211.337 241.116 211.566 240.636 211.566 239.851C211.566 239.316 211.434 238.773 211.149 238.21C210.871 237.64 210.489 237.154 210.016 236.751C210.426 236.876 210.76 236.834 211.017 236.618C211.274 236.396 211.399 236.014 211.399 235.465C211.399 234.714 211.184 234.012 210.746 233.358C210.433 232.893 210.03 232.482 209.536 232.114V230.835" fill="url(#paint51_linear_915_183)"/>
<path d="M248.602 254.003L225.288 240.546C224.231 239.934 223.369 240.428 223.362 241.651C223.355 242.874 224.217 244.355 225.274 244.967L248.588 258.424C249.652 259.036 250.514 258.542 250.521 257.333C250.528 256.123 249.666 254.622 248.602 254.01" fill="#9254EC"/>
<path d="M267.169 266.842L260.593 263.047L263.86 271.729L267.169 266.842Z" fill="url(#paint52_linear_915_183)"/>
<path opacity="0.5" d="M245.127 260.941L223.606 248.512" stroke="#905BF0" stroke-width="1.4" stroke-linecap="round" stroke-linejoin="round"/>
<path d="M274.009 296.454L200.5 254.017C198.769 253.016 197.365 253.823 197.358 255.804L197.302 276.595C197.302 278.576 198.692 280.995 200.423 281.989L273.933 324.426C275.663 325.427 277.068 324.621 277.075 322.647L277.13 301.856C277.13 299.868 275.74 297.449 274.009 296.454Z" fill="url(#paint53_linear_915_183)"/>
<path d="M272.876 297.101L199.367 254.664C197.636 253.663 196.232 254.469 196.225 256.45L196.169 277.241C196.169 279.222 197.56 281.641 199.291 282.635L272.8 325.073C274.531 326.074 275.935 325.267 275.942 323.293L275.997 302.502C275.997 300.514 274.607 298.095 272.876 297.101Z" fill="url(#paint54_linear_915_183)"/>
<path d="M208.41 266.112L205.47 271.27L208.403 274.482L211.295 274.628L208.41 266.112Z" fill="url(#paint55_linear_915_183)"/>
<path d="M211.684 275.782L208.383 275.622L205.074 271.965L208.362 281.634L211.684 275.782Z" fill="url(#paint56_linear_915_183)"/>
<path d="M248.568 291.999L225.253 278.541C224.197 277.93 223.335 278.423 223.328 279.647C223.328 280.863 224.183 282.351 225.239 282.962L248.554 296.42C249.617 297.032 250.479 296.538 250.486 295.329C250.493 294.119 249.631 292.618 248.568 292.006" fill="url(#paint57_linear_915_183)"/>
<path d="M263.846 303.1L260.544 307.979L267.12 311.775L263.846 303.1Z" fill="url(#paint58_linear_915_183)"/>
<path opacity="0.5" d="M245.127 299.026L223.606 286.598" stroke="#905BF0" stroke-width="1.4" stroke-linecap="round" stroke-linejoin="round"/>
<path style="mix-blend-mode:multiply" d="M288.815 293.952L359.787 252.975L377.77 263.36L306.798 304.337L288.815 293.952Z" fill="url(#paint59_linear_915_183)"/>
<path d="M306.798 259.877L288.815 249.499L306.798 239.121L324.774 249.499L306.798 259.877Z" fill="url(#paint60_linear_915_183)"/>
<path d="M306.798 259.877V304.337L324.774 293.952V249.499L306.798 259.877Z" fill="url(#paint61_linear_915_183)"/>
<path d="M306.798 259.877L288.815 249.499V293.952L306.798 304.337V259.877Z" fill="url(#paint62_linear_915_183)"/>
<path opacity="0.29" d="M306.798 304.337L288.815 293.952L306.798 283.574L324.774 293.952L306.798 304.337Z" fill="url(#paint63_linear_915_183)"/>
<g opacity="0.4">
<path style="mix-blend-mode:overlay" d="M324.774 256.088L306.784 274.078V279.959L324.774 261.969V256.088Z" fill="url(#paint64_linear_915_183)"/>
<path style="mix-blend-mode:overlay" d="M324.788 265.452L306.784 283.448V303.781L324.788 285.777V265.452Z" fill="url(#paint65_linear_915_183)"/>
</g>
<path d="M288.051 104.552V161.837C288.051 163.151 286.626 163.971 285.486 163.311L248.77 142.033C247.678 141.407 247.025 140.246 247.025 139.002V81.5989C247.025 80.3685 248.36 79.6039 249.416 80.2225L286.306 101.521C287.398 102.147 288.058 103.308 288.058 104.552H288.051Z" fill="url(#paint66_linear_915_183)"/>
<path d="M286.709 105.031V162.317C286.709 163.63 285.284 164.451 284.144 163.79L247.428 142.512C246.337 141.887 245.683 140.726 245.683 139.482V82.0715C245.683 80.8412 247.018 80.0765 248.074 80.6952L284.965 101.994C286.056 102.619 286.716 103.78 286.716 105.025L286.709 105.031Z" fill="url(#paint67_linear_915_183)"/>
<path d="M258.737 141.317V108.458" stroke="white" stroke-width="1.4" stroke-linecap="round" stroke-linejoin="round"/>
<path d="M267.531 146.398V126.56" stroke="#DAC9D2" stroke-width="1.4" stroke-linecap="round" stroke-linejoin="round"/>
<path d="M275.532 151.014V109.195" stroke="#8400FF" stroke-width="1.4" stroke-linecap="round" stroke-linejoin="round"/>
<path d="M259.565 126.56C259.203 126.56 258.807 126.441 258.397 126.198C256.916 125.343 255.721 123.272 255.728 121.575C255.728 120.449 256.27 119.747 257.132 119.747C257.493 119.747 257.896 119.872 258.306 120.109C259.78 120.964 260.983 123.035 260.976 124.731C260.976 125.857 260.434 126.56 259.572 126.56H259.565Z" fill="white"/>
<path d="M268.754 139.454C268.393 139.454 267.996 139.336 267.586 139.093C266.106 138.238 264.91 136.166 264.917 134.47C264.917 133.344 265.459 132.642 266.321 132.642C266.683 132.642 267.086 132.767 267.496 133.003C268.97 133.858 270.172 135.93 270.165 137.626C270.165 138.752 269.623 139.454 268.761 139.454H268.754Z" fill="#DAC9D2"/>
<path d="M276.748 123.16C276.387 123.16 275.991 123.042 275.58 122.799C274.1 121.944 272.904 119.872 272.911 118.176C272.911 117.05 273.453 116.348 274.315 116.348C274.677 116.348 275.08 116.473 275.49 116.71C276.964 117.565 278.166 119.636 278.159 121.332C278.159 122.458 277.617 123.16 276.755 123.16H276.748Z" fill="#8400FF"/>
<path d="M251.258 92.999V137L281.176 154.274" stroke="#8400FF" stroke-width="1.4" stroke-linecap="round" stroke-linejoin="round"/>
<path style="mix-blend-mode:multiply" d="M283.817 219.407L354.789 178.43L372.772 188.815L301.8 229.792L283.817 219.407Z" fill="url(#paint68_linear_915_183)"/>
<path d="M301.8 205.234L283.817 194.855L301.8 184.47L319.776 194.855L301.8 205.234Z" fill="url(#paint69_linear_915_183)"/>
<path d="M301.8 205.234V229.792L319.776 219.407V194.855L301.8 205.234Z" fill="url(#paint70_linear_915_183)"/>
<path d="M301.8 205.234L283.817 194.855V219.407L301.8 229.792V205.234Z" fill="url(#paint71_linear_915_183)"/>
<path opacity="0.07" d="M301.8 229.792L283.817 219.407L301.8 209.029L319.776 219.407L301.8 229.792Z" fill="url(#paint72_linear_915_183)"/>
<g opacity="0.4">
<path style="mix-blend-mode:overlay" d="M319.769 201.07L301.779 219.06V224.94L319.769 206.951V201.07Z" fill="url(#paint73_linear_915_183)"/>
</g>
<path d="M136.716 239.948L133.275 243.896L135.381 245.113L135.36 253.134L137.995 254.65L138.016 246.635L140.122 247.851L136.716 239.948Z" fill="url(#paint74_linear_915_183)"/>
</g>
<defs>
<linearGradient id="paint0_linear_915_183" x1="155.609" y1="337.23" x2="124.669" y2="239.009" gradientUnits="userSpaceOnUse">
<stop offset="0.03" stop-color="#4F5FD7"/>
<stop offset="0.62" stop-color="#C5CAF1" stop-opacity="0.33"/>
<stop offset="0.91" stop-color="white" stop-opacity="0"/>
</linearGradient>
<linearGradient id="paint1_linear_915_183" x1="122.132" y1="276.608" x2="165.709" y2="275.746" gradientUnits="userSpaceOnUse">
<stop stop-color="#D7C5CF"/>
<stop offset="0.22" stop-color="#ABA2CF"/>
<stop offset="0.97" stop-color="#1B2ED1"/>
</linearGradient>
<linearGradient id="paint2_linear_915_183" x1="168.26" y1="282.364" x2="109.001" y2="264.194" gradientUnits="userSpaceOnUse">
<stop stop-color="#8B94F6"/>
<stop offset="0.97" stop-color="white"/>
</linearGradient>
<linearGradient id="paint3_linear_915_183" x1="134.658" y1="271.04" x2="172.938" y2="301.959" gradientUnits="userSpaceOnUse">
<stop offset="0.03" stop-color="white"/>
<stop offset="1" stop-color="#8B94F6"/>
</linearGradient>
<linearGradient id="paint4_linear_915_183" x1="128.986" y1="237.932" x2="140.073" y2="316.293" gradientUnits="userSpaceOnUse">
<stop offset="0.03" stop-color="#0E10C6"/>
<stop offset="0.61" stop-color="#9E9FE8"/>
<stop offset="1" stop-color="white"/>
</linearGradient>
<linearGradient id="paint5_linear_915_183" x1="133.88" y1="237.244" x2="144.96" y2="315.605" gradientUnits="userSpaceOnUse">
<stop offset="0.03" stop-color="#0E10C6"/>
<stop offset="0.61" stop-color="#9E9FE8"/>
<stop offset="1" stop-color="white"/>
</linearGradient>
<linearGradient id="paint6_linear_915_183" x1="137.682" y1="305.623" x2="114.458" y2="326.546" gradientUnits="userSpaceOnUse">
<stop offset="0.03" stop-color="#DDDFEB"/>
<stop offset="0.72" stop-color="#4C59EC"/>
<stop offset="1" stop-color="#1022ED"/>
</linearGradient>
<linearGradient id="paint7_linear_915_183" x1="147.567" y1="354.775" x2="197.9" y2="298.248" gradientUnits="userSpaceOnUse">
<stop offset="0.03" stop-color="#4F5FD7"/>
<stop offset="0.68" stop-color="#C5CAF1" stop-opacity="0.33"/>
<stop offset="1" stop-color="white" stop-opacity="0"/>
</linearGradient>
<linearGradient id="paint8_linear_915_183" x1="215.744" y1="368.726" x2="137.195" y2="299.916" gradientUnits="userSpaceOnUse">
<stop offset="0.03" stop-color="#8400FF"/>
<stop offset="0.61" stop-color="#9E9FE8"/>
<stop offset="1" stop-color="white"/>
</linearGradient>
<linearGradient id="paint9_linear_915_183" x1="160.482" y1="301.786" x2="158.188" y2="346.893" gradientUnits="userSpaceOnUse">
<stop offset="0.03" stop-color="#1B2ED1"/>
<stop offset="0.78" stop-color="#ABA2CF"/>
<stop offset="1" stop-color="#D7C5CF"/>
</linearGradient>
<linearGradient id="paint10_linear_915_183" x1="120.7" y1="357.945" x2="217.03" y2="223.773" gradientUnits="userSpaceOnUse">
<stop offset="0.03" stop-color="#DDDFEB"/>
<stop offset="0.72" stop-color="#4C59EC"/>
<stop offset="1" stop-color="#1022ED"/>
</linearGradient>
<linearGradient id="paint11_linear_915_183" x1="132.1" y1="337.495" x2="168.059" y2="337.495" gradientUnits="userSpaceOnUse">
<stop offset="0.03" stop-color="#0E10C6"/>
<stop offset="0.61" stop-color="#9E9FE8"/>
<stop offset="1" stop-color="white"/>
</linearGradient>
<linearGradient id="paint12_linear_915_183" x1="150.945" y1="304.643" x2="162.122" y2="343.042" gradientUnits="userSpaceOnUse">
<stop offset="0.03" stop-color="white"/>
<stop offset="0.58" stop-color="#BDC2F9" stop-opacity="0.43"/>
<stop offset="1" stop-color="#8B94F6" stop-opacity="0"/>
</linearGradient>
<linearGradient id="paint13_linear_915_183" x1="279.696" y1="257.159" x2="327.068" y2="299.84" gradientUnits="userSpaceOnUse">
<stop offset="0.03" stop-color="#DDDFEB"/>
<stop offset="0.72" stop-color="#4C59EC"/>
<stop offset="1" stop-color="#1022ED"/>
</linearGradient>
<linearGradient id="paint14_linear_915_183" x1="231.795" y1="336.125" x2="266.815" y2="277.214" gradientUnits="userSpaceOnUse">
<stop offset="0.03" stop-color="#4F5FD7"/>
<stop offset="0.64" stop-color="#C5CAF1" stop-opacity="0.33"/>
<stop offset="0.94" stop-color="white" stop-opacity="0"/>
</linearGradient>
<linearGradient id="paint15_linear_915_183" x1="269.164" y1="290.184" x2="124.725" y2="108.973" gradientUnits="userSpaceOnUse">
<stop offset="0.03" stop-color="#0E10C6"/>
<stop offset="0.16" stop-color="#1113C6"/>
<stop offset="0.29" stop-color="#1D1FC9"/>
<stop offset="0.41" stop-color="#3032CE"/>
<stop offset="0.53" stop-color="#4B4CD4"/>
<stop offset="0.65" stop-color="#6D6FDC"/>
<stop offset="0.77" stop-color="#9899E6"/>
<stop offset="0.89" stop-color="#C9CAF2"/>
<stop offset="1" stop-color="white"/>
</linearGradient>
<linearGradient id="paint16_linear_915_183" x1="199.367" y1="44.4376" x2="222.153" y2="319.261" gradientUnits="userSpaceOnUse">
<stop offset="0.03" stop-color="#1B2ED1"/>
<stop offset="0.29" stop-color="#585FD0"/>
<stop offset="0.6" stop-color="#9C95CF"/>
<stop offset="0.83" stop-color="#C6B7CF"/>
<stop offset="0.95" stop-color="#D7C5CF"/>
</linearGradient>
<linearGradient id="paint17_linear_915_183" x1="232.504" y1="349.611" x2="197.636" y2="130.091" gradientUnits="userSpaceOnUse">
<stop stop-color="#2735DD"/>
<stop offset="0.97" stop-color="#0E10C6"/>
</linearGradient>
<linearGradient id="paint18_linear_915_183" x1="224.892" y1="61.9685" x2="209.696" y2="402.475" gradientUnits="userSpaceOnUse">
<stop stop-color="white"/>
<stop offset="0.11" stop-color="#C9CAF2"/>
<stop offset="0.23" stop-color="#9899E6"/>
<stop offset="0.35" stop-color="#6D6FDC"/>
<stop offset="0.47" stop-color="#4B4CD4"/>
<stop offset="0.59" stop-color="#3032CE"/>
<stop offset="0.71" stop-color="#1D1FC9"/>
<stop offset="0.84" stop-color="#1113C6"/>
<stop offset="0.97" stop-color="#0E10C6"/>
</linearGradient>
<linearGradient id="paint19_linear_915_183" x1="213.603" y1="143.812" x2="210.607" y2="148.796" gradientUnits="userSpaceOnUse">
<stop offset="0.03" stop-color="#0E10C6"/>
<stop offset="0.16" stop-color="#1113C6"/>
<stop offset="0.29" stop-color="#1D1FC9"/>
<stop offset="0.41" stop-color="#3032CE"/>
<stop offset="0.53" stop-color="#4B4CD4"/>
<stop offset="0.65" stop-color="#6D6FDC"/>
<stop offset="0.77" stop-color="#9899E6"/>
<stop offset="0.89" stop-color="#C9CAF2"/>
<stop offset="1" stop-color="white"/>
</linearGradient>
<linearGradient id="paint20_linear_915_183" x1="222.89" y1="149.387" x2="219.901" y2="154.371" gradientUnits="userSpaceOnUse">
<stop offset="0.03" stop-color="#0E10C6"/>
<stop offset="0.16" stop-color="#1113C6"/>
<stop offset="0.29" stop-color="#1D1FC9"/>
<stop offset="0.41" stop-color="#3032CE"/>
<stop offset="0.53" stop-color="#4B4CD4"/>
<stop offset="0.65" stop-color="#6D6FDC"/>
<stop offset="0.77" stop-color="#9899E6"/>
<stop offset="0.89" stop-color="#C9CAF2"/>
<stop offset="1" stop-color="white"/>
</linearGradient>
<linearGradient id="paint21_linear_915_183" x1="232.42" y1="216.174" x2="218.177" y2="237.536" gradientUnits="userSpaceOnUse">
<stop offset="0.03" stop-color="#4F5FD7"/>
<stop offset="0.68" stop-color="#C5CAF1" stop-opacity="0.33"/>
<stop offset="1" stop-color="white" stop-opacity="0"/>
</linearGradient>
<linearGradient id="paint22_linear_915_183" x1="229.306" y1="258.925" x2="218.747" y2="277.589" gradientUnits="userSpaceOnUse">
<stop offset="0.03" stop-color="#4F5FD7"/>
<stop offset="0.68" stop-color="#C5CAF1" stop-opacity="0.33"/>
<stop offset="1" stop-color="white" stop-opacity="0"/>
</linearGradient>
<linearGradient id="paint23_linear_915_183" x1="231.162" y1="293.563" x2="218.636" y2="314.194" gradientUnits="userSpaceOnUse">
<stop offset="0.03" stop-color="#4F5FD7"/>
<stop offset="0.68" stop-color="#C5CAF1" stop-opacity="0.33"/>
<stop offset="1" stop-color="white" stop-opacity="0"/>
</linearGradient>
<linearGradient id="paint24_linear_915_183" x1="216.523" y1="399.353" x2="290.185" y2="333.546" gradientUnits="userSpaceOnUse">
<stop offset="0.03" stop-color="#4F5FD7"/>
<stop offset="0.62" stop-color="#C5CAF1" stop-opacity="0.33"/>
<stop offset="0.91" stop-color="white" stop-opacity="0"/>
</linearGradient>
<linearGradient id="paint25_linear_915_183" x1="212.943" y1="380.794" x2="256.52" y2="379.939" gradientUnits="userSpaceOnUse">
<stop stop-color="#D7C5CF"/>
<stop offset="0.22" stop-color="#ABA2CF"/>
<stop offset="0.97" stop-color="#1B2ED1"/>
</linearGradient>
<linearGradient id="paint26_linear_915_183" x1="226.797" y1="377.471" x2="242.854" y2="353.962" gradientUnits="userSpaceOnUse">
<stop offset="0.03" stop-color="white"/>
<stop offset="1" stop-color="#8B94F6"/>
</linearGradient>
<linearGradient id="paint27_linear_915_183" x1="212.845" y1="376.004" x2="256.423" y2="375.142" gradientUnits="userSpaceOnUse">
<stop stop-color="#D7C5CF"/>
<stop offset="0.22" stop-color="#ABA2CF"/>
<stop offset="0.97" stop-color="#1B2ED1"/>
</linearGradient>
<linearGradient id="paint28_linear_915_183" x1="226.797" y1="372.682" x2="242.854" y2="349.173" gradientUnits="userSpaceOnUse">
<stop offset="0.03" stop-color="white"/>
<stop offset="1" stop-color="#8B94F6"/>
</linearGradient>
<linearGradient id="paint29_linear_915_183" x1="212.741" y1="370.783" x2="256.319" y2="369.928" gradientUnits="userSpaceOnUse">
<stop stop-color="#D7C5CF"/>
<stop offset="0.22" stop-color="#ABA2CF"/>
<stop offset="0.97" stop-color="#1B2ED1"/>
</linearGradient>
<linearGradient id="paint30_linear_915_183" x1="226.797" y1="367.461" x2="242.854" y2="343.952" gradientUnits="userSpaceOnUse">
<stop offset="0.03" stop-color="white"/>
<stop offset="1" stop-color="#8B94F6"/>
</linearGradient>
<linearGradient id="paint31_linear_915_183" x1="212.63" y1="365.167" x2="256.207" y2="364.305" gradientUnits="userSpaceOnUse">
<stop stop-color="#D7C5CF"/>
<stop offset="0.22" stop-color="#ABA2CF"/>
<stop offset="0.97" stop-color="#1B2ED1"/>
</linearGradient>
<linearGradient id="paint32_linear_915_183" x1="258.766" y1="370.923" x2="199.506" y2="352.753" gradientUnits="userSpaceOnUse">
<stop stop-color="#8B94F6"/>
<stop offset="0.97" stop-color="white"/>
</linearGradient>
<linearGradient id="paint33_linear_915_183" x1="225.156" y1="359.599" x2="263.444" y2="390.519" gradientUnits="userSpaceOnUse">
<stop offset="0.03" stop-color="white"/>
<stop offset="1" stop-color="#8B94F6"/>
</linearGradient>
<linearGradient id="paint34_linear_915_183" x1="223.676" y1="349.458" x2="231.044" y2="371.722" gradientUnits="userSpaceOnUse">
<stop offset="0.03" stop-color="#0E10C6"/>
<stop offset="0.61" stop-color="#9E9FE8"/>
<stop offset="1" stop-color="white"/>
</linearGradient>
<linearGradient id="paint35_linear_915_183" x1="154.469" y1="235.332" x2="116.898" y2="185.728" gradientUnits="userSpaceOnUse">
<stop offset="0.03" stop-color="#0E10C6"/>
<stop offset="1" stop-color="#2735DD"/>
</linearGradient>
<linearGradient id="paint36_linear_915_183" x1="161.747" y1="283.052" x2="129.66" y2="190.726" gradientUnits="userSpaceOnUse">
<stop offset="0.03" stop-color="#1B2ED1"/>
<stop offset="0.29" stop-color="#585FD0"/>
<stop offset="0.6" stop-color="#9C95CF"/>
<stop offset="0.83" stop-color="#C6B7CF"/>
<stop offset="0.95" stop-color="#D7C5CF"/>
</linearGradient>
<linearGradient id="paint37_linear_915_183" x1="124.426" y1="203.732" x2="137.029" y2="220.755" gradientUnits="userSpaceOnUse">
<stop offset="0.03" stop-color="white"/>
<stop offset="1" stop-color="#8B94F6"/>
</linearGradient>
<linearGradient id="paint38_linear_915_183" x1="121.534" y1="205.873" x2="134.137" y2="222.897" gradientUnits="userSpaceOnUse">
<stop offset="0.03" stop-color="white"/>
<stop offset="1" stop-color="#8B94F6"/>
</linearGradient>
<linearGradient id="paint39_linear_915_183" x1="103.927" y1="123.723" x2="148.45" y2="186.917" gradientUnits="userSpaceOnUse">
<stop offset="0.03" stop-color="white"/>
<stop offset="1" stop-color="#8B94F6"/>
</linearGradient>
<linearGradient id="paint40_linear_915_183" x1="134.908" y1="169.553" x2="182.705" y2="243.876" gradientUnits="userSpaceOnUse">
<stop offset="0.03" stop-color="white"/>
<stop offset="1" stop-color="#8B94F6"/>
</linearGradient>
<linearGradient id="paint41_linear_915_183" x1="134.172" y1="157.604" x2="141.046" y2="201.146" gradientUnits="userSpaceOnUse">
<stop offset="0.03" stop-color="#1B2ED1"/>
<stop offset="0.29" stop-color="#585FD0"/>
<stop offset="0.6" stop-color="#9C95CF"/>
<stop offset="0.83" stop-color="#C6B7CF"/>
<stop offset="0.95" stop-color="#D7C5CF"/>
</linearGradient>
<linearGradient id="paint42_linear_915_183" x1="191.693" y1="162.449" x2="202.912" y2="151.236" gradientUnits="userSpaceOnUse">
<stop offset="0.03" stop-color="#442C70"/>
<stop offset="0.29" stop-color="#8400FF"/>
<stop offset="0.6" stop-color="#9C95CF"/>
<stop offset="0.83" stop-color="#C6B7CF"/>
<stop offset="0.95" stop-color="#D7C5CF"/>
</linearGradient>
<linearGradient id="paint43_linear_915_183" x1="191.693" y1="226.351" x2="202.912" y2="215.139" gradientUnits="userSpaceOnUse">
<stop offset="0.03" stop-color="#442C70"/>
<stop offset="0.29" stop-color="#8400FF"/>
<stop offset="0.6" stop-color="#9C95CF"/>
<stop offset="0.83" stop-color="#C6B7CF"/>
<stop offset="0.95" stop-color="#D7C5CF"/>
</linearGradient>
<linearGradient id="paint44_linear_915_183" x1="211.664" y1="173.578" x2="222.876" y2="162.365" gradientUnits="userSpaceOnUse">
<stop offset="0.03" stop-color="#1B2ED1"/>
<stop offset="0.29" stop-color="#585FD0"/>
<stop offset="0.6" stop-color="#9C95CF"/>
<stop offset="0.83" stop-color="#C6B7CF"/>
<stop offset="0.95" stop-color="#D7C5CF"/>
</linearGradient>
<linearGradient id="paint45_linear_915_183" x1="183.289" y1="136.785" x2="249.77" y2="231.141" gradientUnits="userSpaceOnUse">
<stop offset="0.03" stop-color="white"/>
<stop offset="1" stop-color="#8B94F6"/>
</linearGradient>
<linearGradient id="paint46_linear_915_183" x1="227.61" y1="209.071" x2="389.886" y2="302.766" gradientUnits="userSpaceOnUse">
<stop offset="0.03" stop-color="white"/>
<stop offset="1" stop-color="#8B94F6"/>
</linearGradient>
<linearGradient id="paint47_linear_915_183" x1="204.483" y1="192.235" x2="215.251" y2="219.046" gradientUnits="userSpaceOnUse">
<stop offset="0.03" stop-color="#1B2ED1"/>
<stop offset="0.51" stop-color="#4F1FD7"/>
<stop offset="0.52" stop-color="#5532D7"/>
<stop offset="0.54" stop-color="#5634D7"/>
<stop offset="0.64" stop-color="#7B5DD4"/>
<stop offset="0.75" stop-color="#A28AD2"/>
<stop offset="0.86" stop-color="#BFAAD0"/>
<stop offset="0.94" stop-color="#D0BDCF"/>
<stop offset="1" stop-color="#D7C5CF"/>
</linearGradient>
<linearGradient id="paint48_linear_915_183" x1="264.166" y1="249.026" x2="263.374" y2="219.921" gradientUnits="userSpaceOnUse">
<stop offset="0.03" stop-color="white"/>
<stop offset="1" stop-color="#8B94F6"/>
</linearGradient>
<linearGradient id="paint49_linear_915_183" x1="183.289" y1="174.739" x2="249.77" y2="269.095" gradientUnits="userSpaceOnUse">
<stop offset="0.03" stop-color="white"/>
<stop offset="1" stop-color="#8B94F6"/>
</linearGradient>
<linearGradient id="paint50_linear_915_183" x1="208.16" y1="235.798" x2="370.437" y2="329.494" gradientUnits="userSpaceOnUse">
<stop offset="0.03" stop-color="white"/>
<stop offset="1" stop-color="#8B94F6"/>
</linearGradient>
<linearGradient id="paint51_linear_915_183" x1="205.936" y1="230.766" x2="214.013" y2="250.903" gradientUnits="userSpaceOnUse">
<stop offset="0.03" stop-color="#1B2ED1"/>
<stop offset="0.51" stop-color="#4F1FD7"/>
<stop offset="0.52" stop-color="#5532D7"/>
<stop offset="0.54" stop-color="#5634D7"/>
<stop offset="0.64" stop-color="#7B5DD4"/>
<stop offset="0.75" stop-color="#A28AD2"/>
<stop offset="0.86" stop-color="#BFAAD0"/>
<stop offset="0.94" stop-color="#D0BDCF"/>
<stop offset="1" stop-color="#D7C5CF"/>
</linearGradient>
<linearGradient id="paint52_linear_915_183" x1="262.227" y1="286.445" x2="264.02" y2="263.116" gradientUnits="userSpaceOnUse">
<stop offset="0.03" stop-color="white"/>
<stop offset="1" stop-color="#8B94F6"/>
</linearGradient>
<linearGradient id="paint53_linear_915_183" x1="226.324" y1="224.085" x2="238.356" y2="296.03" gradientUnits="userSpaceOnUse">
<stop stop-color="#2735DD"/>
<stop offset="0.31" stop-color="#2330DA"/>
<stop offset="0.66" stop-color="#1A22D1"/>
<stop offset="0.97" stop-color="#0E10C6"/>
</linearGradient>
<linearGradient id="paint54_linear_915_183" x1="258.598" y1="238.071" x2="231.426" y2="300.604" gradientUnits="userSpaceOnUse">
<stop offset="0.03" stop-color="#1B2ED1"/>
<stop offset="0.29" stop-color="#585FD0"/>
<stop offset="0.6" stop-color="#9C95CF"/>
<stop offset="0.83" stop-color="#C6B7CF"/>
<stop offset="0.95" stop-color="#D7C5CF"/>
</linearGradient>
<linearGradient id="paint55_linear_915_183" x1="205.477" y1="265.577" x2="214.548" y2="284.915" gradientUnits="userSpaceOnUse">
<stop offset="0.03" stop-color="white"/>
<stop offset="1" stop-color="#8B94F6"/>
</linearGradient>
<linearGradient id="paint56_linear_915_183" x1="204.156" y1="266.196" x2="213.228" y2="285.534" gradientUnits="userSpaceOnUse">
<stop offset="0.03" stop-color="white"/>
<stop offset="1" stop-color="#8B94F6"/>
</linearGradient>
<linearGradient id="paint57_linear_915_183" x1="233.025" y1="249.45" x2="239.899" y2="316.731" gradientUnits="userSpaceOnUse">
<stop offset="0.03" stop-color="#1B2ED1"/>
<stop offset="0.29" stop-color="#585FD0"/>
<stop offset="0.6" stop-color="#9C95CF"/>
<stop offset="0.83" stop-color="#C6B7CF"/>
<stop offset="0.95" stop-color="#D7C5CF"/>
</linearGradient>
<linearGradient id="paint58_linear_915_183" x1="263.679" y1="317.878" x2="264.277" y2="285.979" gradientUnits="userSpaceOnUse">
<stop offset="0.03" stop-color="#0E10C6"/>
<stop offset="0.16" stop-color="#1113C6"/>
<stop offset="0.29" stop-color="#1D1FC9"/>
<stop offset="0.41" stop-color="#3032CE"/>
<stop offset="0.53" stop-color="#4B4CD4"/>
<stop offset="0.65" stop-color="#6D6FDC"/>
<stop offset="0.77" stop-color="#9899E6"/>
<stop offset="0.89" stop-color="#C9CAF2"/>
<stop offset="1" stop-color="white"/>
</linearGradient>
<linearGradient id="paint59_linear_915_183" x1="291.937" y1="325.108" x2="371.062" y2="236.229" gradientUnits="userSpaceOnUse">
<stop offset="0.03" stop-color="#4F5FD7"/>
<stop offset="0.64" stop-color="#C5CAF1" stop-opacity="0.33"/>
<stop offset="0.94" stop-color="white" stop-opacity="0"/>
</linearGradient>
<linearGradient id="paint60_linear_915_183" x1="372.467" y1="307.013" x2="293.911" y2="238.21" gradientUnits="userSpaceOnUse">
<stop offset="0.03" stop-color="#0E10C6"/>
<stop offset="0.61" stop-color="#9E9FE8"/>
<stop offset="1" stop-color="white"/>
</linearGradient>
<linearGradient id="paint61_linear_915_183" x1="299.235" y1="220.644" x2="321.889" y2="297.657" gradientUnits="userSpaceOnUse">
<stop offset="0.03" stop-color="#1B2ED1"/>
<stop offset="0.78" stop-color="#ABA2CF"/>
<stop offset="1" stop-color="#D7C5CF"/>
</linearGradient>
<linearGradient id="paint62_linear_915_183" x1="294.432" y1="299.805" x2="306.214" y2="219.908" gradientUnits="userSpaceOnUse">
<stop offset="0.03" stop-color="#DDDFEB"/>
<stop offset="0.72" stop-color="#4C59EC"/>
<stop offset="1" stop-color="#1022ED"/>
</linearGradient>
<linearGradient id="paint63_linear_915_183" x1="288.815" y1="293.952" x2="324.774" y2="293.952" gradientUnits="userSpaceOnUse">
<stop offset="0.03" stop-color="#905BF0"/>
<stop offset="0.61" stop-color="#9E9FE8"/>
<stop offset="1" stop-color="white"/>
</linearGradient>
<linearGradient id="paint64_linear_915_183" x1="307.66" y1="240.121" x2="318.838" y2="278.527" gradientUnits="userSpaceOnUse">
<stop offset="0.03" stop-color="white"/>
<stop offset="0.58" stop-color="#BDC2F9" stop-opacity="0.43"/>
<stop offset="1" stop-color="#8B94F6" stop-opacity="0"/>
</linearGradient>
<linearGradient id="paint65_linear_915_183" x1="301.369" y1="235.068" x2="321.215" y2="303.266" gradientUnits="userSpaceOnUse">
<stop offset="0.03" stop-color="white"/>
<stop offset="0.58" stop-color="#BDC2F9" stop-opacity="0.43"/>
<stop offset="1" stop-color="#8B94F6" stop-opacity="0"/>
</linearGradient>
<linearGradient id="paint66_linear_915_183" x1="286.404" y1="146.69" x2="237.231" y2="81.7727" gradientUnits="userSpaceOnUse">
<stop offset="0.03" stop-color="#0E10C6"/>
<stop offset="1" stop-color="#2735DD"/>
</linearGradient>
<linearGradient id="paint67_linear_915_183" x1="302.356" y1="187.348" x2="259.572" y2="110.335" gradientUnits="userSpaceOnUse">
<stop offset="0.03" stop-color="#0E10C6"/>
<stop offset="1" stop-color="#2735DD"/>
</linearGradient>
<linearGradient id="paint68_linear_915_183" x1="286.938" y1="250.563" x2="366.064" y2="161.684" gradientUnits="userSpaceOnUse">
<stop offset="0.03" stop-color="#4F5FD7"/>
<stop offset="0.55" stop-color="#C5CAF1" stop-opacity="0.33"/>
<stop offset="0.8" stop-color="white" stop-opacity="0"/>
</linearGradient>
<linearGradient id="paint69_linear_915_183" x1="367.462" y1="252.37" x2="288.913" y2="183.56" gradientUnits="userSpaceOnUse">
<stop offset="0.03" stop-color="#8400FF"/>
<stop offset="0.61" stop-color="#9E9FE8"/>
<stop offset="1" stop-color="white"/>
</linearGradient>
<linearGradient id="paint70_linear_915_183" x1="273.926" y1="168.851" x2="319.123" y2="222.146" gradientUnits="userSpaceOnUse">
<stop offset="0.03" stop-color="#1B2ED1"/>
<stop offset="0.78" stop-color="#ABA2CF"/>
<stop offset="1" stop-color="#D7C5CF"/>
</linearGradient>
<linearGradient id="paint71_linear_915_183" x1="292.757" y1="212.678" x2="300.049" y2="163.241" gradientUnits="userSpaceOnUse">
<stop offset="0.03" stop-color="#DDDFEB"/>
<stop offset="0.72" stop-color="#4C59EC"/>
<stop offset="1" stop-color="#1022ED"/>
</linearGradient>
<linearGradient id="paint72_linear_915_183" x1="283.817" y1="219.407" x2="319.776" y2="219.407" gradientUnits="userSpaceOnUse">
<stop offset="0.03" stop-color="#905BF0"/>
<stop offset="0.61" stop-color="#9E9FE8"/>
<stop offset="1" stop-color="white"/>
</linearGradient>
<linearGradient id="paint73_linear_915_183" x1="302.655" y1="185.103" x2="313.833" y2="223.508" gradientUnits="userSpaceOnUse">
<stop offset="0.03" stop-color="white"/>
<stop offset="0.58" stop-color="#BDC2F9" stop-opacity="0.43"/>
<stop offset="1" stop-color="#8B94F6" stop-opacity="0"/>
</linearGradient>
<linearGradient id="paint74_linear_915_183" x1="137.091" y1="228.416" x2="136.472" y2="255.79" gradientUnits="userSpaceOnUse">
<stop offset="0.03" stop-color="#1B2ED1"/>
<stop offset="0.29" stop-color="#585FD0"/>
<stop offset="0.6" stop-color="#9C95CF"/>
<stop offset="0.83" stop-color="#C6B7CF"/>
<stop offset="0.95" stop-color="#D7C5CF"/>
</linearGradient>
<clipPath id="clip0_915_183">
<rect width="283.77" height="314.335" fill="white" transform="translate(94 80)"/>
</clipPath>
</defs>
</svg>
