<?xml version="1.0" encoding="UTF-8"?>
<svg id="Layer_1" xmlns="http://www.w3.org/2000/svg" version="1.1" xmlns:xlink="http://www.w3.org/1999/xlink" viewBox="0 0 29 38">
  <!-- Generator: Adobe Illustrator 29.5.1, SVG Export Plug-In . SVG Version: 2.1.0 Build 141)  -->
  <defs>
    <style>
      .st0 {
        fill: #8c38c9;
      }

      .st1 {
        fill: #fff;
      }

      .st2 {
        fill: none;
      }

      .st3 {
        fill: #b852ff;
      }

      .st4 {
        fill: #702ca1;
      }

      .st5 {
        fill: #8b24cf;
      }

      .st6 {
        clip-path: url(#clippath);
      }

      .st7 {
        fill: #c571ff;
      }
    </style>
    <clipPath id="clippath">
      <rect class="st2" x=".2" y=".5" width="28.6" height="37.1"/>
    </clipPath>
  </defs>
  <g class="st6">
    <g>
      <path class="st4" d="M14.5,30.3c7.9,0,14.3-6.5,14.3-14.6S22.4,1.1,14.5,1.1.2,7.6.2,15.7s6.4,14.6,14.3,14.6Z"/>
      <path class="st0" d="M14.5,29.6c7.9,0,14.3-6.5,14.3-14.6S22.4.5,14.5.5.2,7,.2,15s6.4,14.6,14.3,14.6Z"/>
      <path class="st3" d="M27.4,18.2c1.7-7.2-2.6-14.6-9.7-16.3C10.5.2,3.4,4.6,1.6,11.8c-1.7,7.2,2.6,14.6,9.7,16.3,7.1,1.8,14.3-2.7,16-9.9Z"/>
      <path class="st7" d="M24.8,17.6c1.4-5.8-2.1-11.6-7.8-13-5.7-1.4-11.4,2.1-12.8,7.9-1.4,5.8,2.1,11.6,7.8,13,5.7,1.4,11.4-2.1,12.8-7.9Z"/>
      <path class="st1" d="M21,16.6c.9-3.6-1.3-7.3-4.9-8.2-3.6-.9-7.2,1.4-8,5-.9,3.6,1.3,7.3,4.9,8.2,3.6.9,7.2-1.4,8-5Z"/>
      <path class="st3" d="M14.5,31.2c-2,0-4-.4-5.7-1.2l5.7,7.5,5.7-7.5c-1.8.8-3.7,1.2-5.7,1.2Z"/>
      <path class="st5" d="M14.5,37.5l5.7-7.5c-1.8.8-3.7,1.2-5.7,1.2v6.3Z"/>
    </g>
  </g>
</svg>